<svg width="56" height="56" viewBox="0 0 56 56" fill="none" xmlns="http://www.w3.org/2000/svg">
<path d="M20.7897 0C16.9909 0 13.8828 3.1081 13.8828 6.90688V13.8138H0.690688C0.276275 13.8138 0.0690688 14.09 0.0690688 14.4354V31.081C0.0690688 33.0149 1.58858 34.5344 3.52251 34.5344H51.8707C53.8046 34.5344 55.3241 33.0149 55.3241 31.081V14.4354C55.3241 14.021 55.0478 13.8138 54.7025 13.8138H41.5104V6.90688C41.5104 3.1081 38.4023 0 34.6035 0L20.7897 0ZM20.7897 6.90688H34.6035V13.8138H20.7897V6.90688ZM0.0690688 40.8197V54.6334C0.0690688 54.9788 0.345344 55.255 0.690688 55.255H54.6334C54.9788 55.255 55.2551 54.9788 55.2551 54.6334V40.8197C54.1499 41.2341 53.0448 41.4413 51.8016 41.4413H3.45344C2.2102 41.4413 1.1051 41.165 0 40.8197H0.0690688Z" fill="#F96060"/>
</svg>
