<svg width="56" height="56" viewBox="0 0 56 56" fill="none" xmlns="http://www.w3.org/2000/svg">
<path d="M27.6621 0C12.4479 0 0 12.4479 0 27.6621C0 42.8762 12.4479 55.3241 27.6621 55.3241C42.8762 55.3241 55.3241 42.8762 55.3241 27.6621C55.3241 12.4479 42.8762 0 27.6621 0ZM27.6621 6.91551C39.1418 6.91551 48.4086 16.1823 48.4086 27.6621C48.4086 39.1418 39.1418 48.4086 27.6621 48.4086C16.1823 48.4086 6.91551 39.1418 6.91551 27.6621C6.91551 16.1823 16.1823 6.91551 27.6621 6.91551ZM24.2043 13.831V29.1835L25.3108 30.0825L28.7685 33.5402L31.1198 36.1681L36.099 31.189L33.4711 28.8377L31.1198 26.4864V13.9693H24.2043V13.831Z" fill="#F96060"/>
</svg>
